#!OML:ASF X:\für Bonn\!DataBase\2005_08_12_Daniel\c3d\Daniel.ASF
:FULLY-SPECIFIED
:DEGREES
107
root -2.75718 7.99835 -2.85932 319.751 -83.3695 -348.167
lowerback 52.9895 -4.29169 1.62555
upperback 4.49213 -6.18052 -2.70403
thorax -16.5433 -3.17909 -0.528471
lowerneck 3.23048 2.00284 -3.16296
upperneck -1.77773 2.55642 0.916703
head -1.144 1.28531 0.761914
rclavicle -2.6339e-014 -1.90833e-014
rhumerus 65.3439 2.47451 -89.9643
rradius 12.9485
rwrist 52.0105
rhand -18.2758 13.6349
rfingers 7.12502
rthumb 8.00412 -16.1935
lclavicle -2.6339e-014 -1.90833e-014
lhumerus 69.5896 -1.92646 86.1433
lradius 10.8761
lwrist -55.5046
lhand -16.4265 2.19217
lfingers 7.12502
lthumb 9.7887 31.9447
rfemur 24.2744 -57.4 -122.105
rtibia 144.025
rfoot 2.90557 78.7124
rtoes 6.90314
lfemur -59.7113 51.6934 17.481
ltibia 141.376
lfoot 1.88444 -59.2481
ltoes 13.9688
108
root -2.75171 8.17114 -2.85831 319.467 -83.3019 -347.418
lowerback 52.5157 -4.2282 1.47991
upperback 4.43105 -6.16719 -2.70602
thorax -16.5492 -3.15765 -0.479361
lowerneck 2.98814 1.98631 -3.13606
upperneck -1.57728 2.54322 0.893876
head -1.03803 1.27776 0.752773
rclavicle 2.47487e-014 -2.62396e-014
rhumerus 65.2724 2.46983 -89.9317
rradius 12.9428
rwrist 52.0087
rhand -18.8223 13.4842
rfingers 7.12502
rthumb 7.47671 -16.3636
lclavicle 2.47487e-014 -2.62396e-014
lhumerus 69.6177 -2.25779 85.4606
lradius 11.0991
lwrist -54.3411
lhand -16.252 2.14456
lfingers 7.12502
lthumb 9.957 31.8891
rfemur 21.7464 -58.7561 -116.871
rtibia 142.68
rfoot 6.00939 77.0654
rtoes 7.05522
lfemur -59.6778 49.6352 15.3924
ltibia 139.977
lfoot 1.87395 -58.1007
ltoes 14.3457
109
root -2.74859 8.34191 -2.85761 319.318 -83.2384 -346.834
lowerback 52.0328 -4.16521 1.32298
upperback 4.38687 -6.15647 -2.68427
thorax -16.5263 -3.13827 -0.397759
lowerneck 2.67341 1.97871 -3.1765
upperneck -1.3447 2.54257 0.901264
head -0.912179 1.27634 0.764873
rclavicle 1.31198e-014 -1.23246e-014
rhumerus 65.2242 2.48399 -89.9559
rradius 12.9046
rwrist 52.1993
rhand -19.2878 13.3174
rfingers 7.12502
rthumb 7.02737 -16.5459
lclavicle 1.31198e-014 -1.23246e-014
lhumerus 69.6686 -2.47702 85.0298
lradius 11.2365
lwrist -53.6656
lhand -16.2133 2.03628
lfingers 7.12502
lthumb 9.99436 31.779
rfemur 18.6265 -59.8997 -111.113
rtibia 141.34
rfoot 8.21107 75.3954
rtoes 7.13823
lfemur -59.4294 47.6686 13.5981
ltibia 138.568
lfoot 1.94585 -57.0527
ltoes 14.7776
110
root -2.74568 8.51259 -2.85633 319.232 -83.1683 -346.357
lowerback 51.5819 -4.11734 1.1877
upperback 4.34144 -6.15328 -2.67151
thorax -16.5091 -3.12332 -0.33157
lowerneck 2.38303 1.97146 -3.21331
upperneck -1.10732 2.54226 0.923404
head -0.789895 1.27477 0.780846
rclavicle 5.06901e-015 -4.37326e-015
rhumerus 65.1348 2.47796 -90.0088
rradius 12.8771
rwrist 52.5062
rhand -19.6219 13.1963
rfingers 7.12502
rthumb 6.70487 -16.6775
lclavicle 5.06901e-015 -4.37326e-015
lhumerus 69.7651 -2.67301 84.646
lradius 11.1832
lwrist -53.257
lhand -16.3676 1.87262
lfingers 7.12502
lthumb 9.84556 31.6224
rfemur 14.8148 -60.81 -104.693
rtibia 139.992
rfoot 9.45957 73.6135
rtoes 7.1707
lfemur -59.0937 45.6937 11.9186
ltibia 137.149
lfoot 1.7691 -56.0292
ltoes 15.0571
111
root -2.7441 8.67992 -2.85526 319.065 -83.1021 -345.774
lowerback 51.0497 -4.06184 1.0508
upperback 4.31052 -6.1418 -2.67015
thorax -16.4609 -3.10563 -0.283955
lowerneck 2.14115 1.95372 -3.22265
upperneck -0.891012 2.52641 0.901304
head -0.681395 1.26574 0.778298
rclavicle 4.08502e-014 2.26615e-014
rhumerus 65.0054 2.38107 -90.2611
rradius 12.8791
rwrist 53.1331
rhand -19.7525 13.1414
rfingers 7.12502
rthumb 6.57875 -16.7364
lclavicle 4.08502e-014 2.26615e-014
lhumerus 69.864 -2.85822 84.3716
lradius 11.0404
lwrist -53.0835
lhand -16.6327 1.70013
lfingers 7.12502
lthumb 9.58973 31.4619
rfemur 10.6409 -61.4672 -98.0539
rtibia 138.673
rfoot 10.1577 71.8474
rtoes 7.04987
lfemur -58.6994 43.8642 10.3926
ltibia 135.739
lfoot 1.72503 -55.0873
ltoes 15.3295
112
root -2.74272 8.85194 -2.85366 318.934 -83.0441 -345.27
lowerback 50.5463 -4.01031 0.926821
upperback 4.29217 -6.12897 -2.66928
thorax -16.399 -3.08946 -0.24329
lowerneck 1.93105 1.94854 -3.26002
upperneck -0.704864 2.52632 0.924948
head -0.589583 1.26445 0.794222
rclavicle -2.59414e-014 -3.53837e-014
rhumerus 64.8712 2.28196 -90.5109
rradius 12.8899
rwrist 53.7995
rhand -19.721 13.1683
rfingers 7.12502
rthumb 6.60916 -16.7086
lclavicle -2.59414e-014 -3.53837e-014
lhumerus 69.9679 -3.05912 83.9815
lradius 10.8969
lwrist -52.923
lhand -16.9064 1.50037
lfingers 7.12502
lthumb 9.32566 31.2741
rfemur 5.87368 -61.7752 -90.7405
rtibia 137.292
rfoot 10.4254 69.9691
rtoes 7.131
lfemur -58.1967 41.993 8.95694
ltibia 134.286
lfoot 1.35124 -54.1419
ltoes 15.5479
113
root -2.74266 9.03585 -2.8521 318.952 -82.9843 -344.906
lowerback 50.0469 -3.97486 0.813745
upperback 4.25687 -6.1257 -2.66034
thorax -16.3549 -3.07672 -0.19321
lowerneck 1.74597 1.94366 -3.34054
upperneck -0.529997 2.52503 0.964317
head -0.506628 1.26257 0.822192
rclavicle -6.16232e-015 1.43125e-014
rhumerus 64.7368 2.18371 -90.8324
rradius 12.8911
rwrist 54.5699
rhand -19.5604 13.2148
rfingers 7.12502
rthumb 6.76419 -16.6572
lclavicle -6.16232e-015 1.43125e-014
lhumerus 69.9927 -3.19643 83.7646
lradius 10.8321
lwrist -52.9402
lhand -17.0773 1.33003
lfingers 7.12502
lthumb 9.16079 31.1111
rfemur 0.58596 -61.7015 -82.7362
rtibia 135.812
rfoot 10.0646 67.8843
rtoes 6.95944
lfemur -57.6024 40.0231 7.53056
ltibia 132.733
lfoot 0.796352 -53.1361
ltoes 15.7741
114
root -2.74256 9.22579 -2.85052 318.936 -82.936 -344.508
lowerback 49.552 -3.92974 0.699856
upperback 4.22634 -6.10932 -2.64436
thorax -16.3012 -3.05908 -0.141616
lowerneck 1.53849 1.93675 -3.41149
upperneck -0.355932 2.52216 0.98565
head -0.4199 1.26 0.843268
rclavicle -4.07509e-015 1.98785e-014
rhumerus 64.6048 2.03531 -91.2245
rradius 12.9199
rwrist 55.4399
rhand -19.306 13.3316
rfingers 7.12502
rthumb 7.0098 -16.5323
lclavicle -4.07509e-015 1.98785e-014
lhumerus 69.977 -3.29392 83.7014
lradius 10.8539
lwrist -53.138
lhand -17.1166 1.18739
lfingers 7.12502
lthumb 9.12282 30.9701
rfemur -4.76442 -61.2123 -74.623
rtibia 134.295
rfoot 8.67858 65.7433
rtoes 6.6186
lfemur -56.9332 38.0727 6.14508
ltibia 131.111
lfoot 0.200443 -52.1137
ltoes 15.8725
115
root -2.74357 9.42017 -2.84826 318.854 -82.8697 -344.061
lowerback 49.0687 -3.90336 0.609216
upperback 4.18995 -6.10847 -2.65922
thorax -16.2596 -3.04891 -0.127029
lowerneck 1.38983 1.92716 -3.46258
upperneck -0.195439 2.51407 1.00117
head -0.34677 1.25474 0.858776
rclavicle -2.57426e-014 -1.78906e-014
rhumerus 64.4639 1.83963 -91.6895
rradius 12.9362
rwrist 56.3627
rhand -19.005 13.4638
rfingers 7.12502
rthumb 7.30034 -16.3902
lclavicle -2.57426e-014 -1.78906e-014
lhumerus 69.9602 -3.49311 83.3208
lradius 10.8878
lwrist -53.0113
lhand -17.0461 1.16714
lfingers 7.12502
lthumb 9.1909 30.9468
rfemur -9.91344 -60.249 -66.7097
rtibia 132.714
rfoot 7.42474 63.5156
rtoes 6.33328
lfemur -56.1891 36.1241 4.78184
ltibia 129.441
lfoot -0.628782 -51.0593
ltoes 15.9937
116
root -2.7453 9.61395 -2.84675 318.877 -82.8302 -343.718
lowerback 47.7402 -3.87211 0.557852
upperback 5.16588 -6.08549 -2.74218
thorax -16.3962 -3.03764 -0.0913747
lowerneck 1.24506 1.92389 -3.56218
upperneck -0.0537595 2.51366 1.02312
head -0.281123 1.25344 0.884425
rclavicle -7.55382e-015 1.59028e-014
rhumerus 64.334 1.67134 -92.1654
rradius 12.9215
rwrist 57.277
rhand -18.7318 13.7016
rfingers 7.12502
rthumb 7.56398 -16.1432
lclavicle -7.55382e-015 1.59028e-014
lhumerus 69.9012 -3.5722 83.2533
lradius 10.9333
lwrist -53.177
lhand -16.8698 1.17449
lfingers 7.12502
lthumb 9.36094 30.9466
rfemur -14.6539 -58.9069 -59.2328
rtibia 131.128
rfoot 5.94509 61.2517
rtoes 6.00679
lfemur -55.3398 34.3607 3.6149
ltibia 127.76
lfoot -1.31059 -50.1477
ltoes 16.0997
117
root -2.74673 9.8062 -2.84503 318.914 -82.7751 -343.39
lowerback 47.2513 -3.84817 0.474675
upperback 5.11214 -6.07992 -2.75021
thorax -16.3234 -3.02708 -0.0781027
lowerneck 1.08804 1.91474 -3.60221
upperneck 0.101808 2.50716 1.04812
head -0.208286 1.24894 0.90128
rclavicle -1.75924e-014 -1.19271e-015
rhumerus 64.2349 1.47366 -92.6305
rradius 12.8706
rwrist 58.0949
rhand -18.4971 13.9718
rfingers 7.12502
rthumb 7.79058 -15.8646
lclavicle -1.75924e-014 -1.19271e-015
lhumerus 69.8644 -3.73418 82.9329
lradius 11.0022
lwrist -53.0854
lhand -16.626 1.24955
lfingers 7.12502
lthumb 9.59621 31.011
rfemur -18.6242 -57.2916 -52.6423
rtibia 129.523
rfoot 4.89483 59.0196
rtoes 5.84531
lfemur -54.5254 32.6436 2.46004
ltibia 126.086
lfoot -2.19641 -49.2027
ltoes 16.0509
118
root -2.74945 9.99832 -2.84327 318.86 -82.7279 -342.985
lowerback 46.7743 -3.81493 0.374589
upperback 5.049 -6.06779 -2.74282
thorax -16.2591 -3.01234 -0.0418312
lowerneck 0.948843 1.91313 -3.66884
upperneck 0.237664 2.50964 1.04703
head -0.144662 1.24904 0.914291
rclavicle -3.10104e-014 -2.22639e-014
rhumerus 64.1077 1.3169 -93.0543
rradius 12.8304
rwrist 58.8248
rhand -18.3055 14.2233
rfingers 7.12502
rthumb 7.97549 -15.6063
lclavicle -3.10104e-014 -2.22639e-014
lhumerus 69.7865 -3.84372 82.7432
lradius 11.0692
lwrist -53.1082
lhand -16.3802 1.46342
lfingers 7.12502
lthumb 9.83336 31.2138
rfemur -21.9481 -55.4454 -46.7647
rtibia 127.89
rfoot 3.71584 56.8706
rtoes 5.56556
lfemur -53.6343 30.9995 1.38822
ltibia 124.396
lfoot -3.11716 -48.2835
ltoes 16.0601
